<mxfile host="app.diagrams.net" modified="2021-01-04T14:17:57.297Z" agent="5.0 (Macintosh; Intel Mac OS X 10_15_7) AppleWebKit/537.36 (KHTML, like Gecko) Chrome/84.0.4147.105 Safari/537.36" etag="hgGElN4olfp-xa37UavM" version="14.1.8" type="github">
  <diagram name="Page-1" id="c7558073-3199-34d8-9f00-42111426c3f3">
    <mxGraphModel dx="1792" dy="2332" grid="1" gridSize="10" guides="1" tooltips="1" connect="1" arrows="1" fold="1" page="1" pageScale="1" pageWidth="826" pageHeight="1169" background="#ffffff" math="0" shadow="0">
      <root>
        <mxCell id="0" />
        <mxCell id="1" parent="0" />
        <mxCell id="vbgf6LlGahoQNrdfwKG8-104" style="edgeStyle=orthogonalEdgeStyle;rounded=0;orthogonalLoop=1;jettySize=auto;html=1;exitX=0;exitY=0.5;exitDx=0;exitDy=0;entryX=0.5;entryY=0;entryDx=0;entryDy=0;strokeWidth=2;" edge="1" parent="1" source="vbgf6LlGahoQNrdfwKG8-96" target="vbgf6LlGahoQNrdfwKG8-101">
          <mxGeometry relative="1" as="geometry" />
        </mxCell>
        <mxCell id="vbgf6LlGahoQNrdfwKG8-105" style="edgeStyle=orthogonalEdgeStyle;rounded=0;orthogonalLoop=1;jettySize=auto;html=1;exitX=0.5;exitY=1;exitDx=0;exitDy=0;entryX=0.5;entryY=0;entryDx=0;entryDy=0;strokeWidth=2;" edge="1" parent="1" source="vbgf6LlGahoQNrdfwKG8-96" target="vbgf6LlGahoQNrdfwKG8-102">
          <mxGeometry relative="1" as="geometry" />
        </mxCell>
        <mxCell id="vbgf6LlGahoQNrdfwKG8-106" style="edgeStyle=orthogonalEdgeStyle;rounded=0;orthogonalLoop=1;jettySize=auto;html=1;exitX=1;exitY=0.5;exitDx=0;exitDy=0;entryX=0.5;entryY=0;entryDx=0;entryDy=0;strokeWidth=2;" edge="1" parent="1" source="vbgf6LlGahoQNrdfwKG8-96" target="vbgf6LlGahoQNrdfwKG8-103">
          <mxGeometry relative="1" as="geometry" />
        </mxCell>
        <mxCell id="vbgf6LlGahoQNrdfwKG8-124" style="edgeStyle=orthogonalEdgeStyle;rounded=0;orthogonalLoop=1;jettySize=auto;html=1;exitX=0.5;exitY=0;exitDx=0;exitDy=0;entryX=0.25;entryY=0;entryDx=0;entryDy=0;strokeWidth=2;" edge="1" parent="1" source="vbgf6LlGahoQNrdfwKG8-96" target="vbgf6LlGahoQNrdfwKG8-123">
          <mxGeometry relative="1" as="geometry" />
        </mxCell>
        <mxCell id="vbgf6LlGahoQNrdfwKG8-96" value="MRI" style="whiteSpace=wrap;align=center;verticalAlign=middle;fontStyle=1;strokeWidth=2;fillColor=#FFFFCC" vertex="1" parent="1">
          <mxGeometry x="480" y="10" width="90" height="60" as="geometry" />
        </mxCell>
        <mxCell id="vbgf6LlGahoQNrdfwKG8-115" style="edgeStyle=orthogonalEdgeStyle;rounded=0;orthogonalLoop=1;jettySize=auto;html=1;exitX=0.5;exitY=1;exitDx=0;exitDy=0;strokeWidth=2;" edge="1" parent="1" source="vbgf6LlGahoQNrdfwKG8-97" target="vbgf6LlGahoQNrdfwKG8-114">
          <mxGeometry relative="1" as="geometry" />
        </mxCell>
        <mxCell id="vbgf6LlGahoQNrdfwKG8-130" style="edgeStyle=orthogonalEdgeStyle;rounded=0;orthogonalLoop=1;jettySize=auto;html=1;exitX=0.75;exitY=1;exitDx=0;exitDy=0;entryX=0;entryY=0.5;entryDx=0;entryDy=0;dashed=1;strokeWidth=2;" edge="1" parent="1" source="vbgf6LlGahoQNrdfwKG8-97" target="vbgf6LlGahoQNrdfwKG8-120">
          <mxGeometry relative="1" as="geometry">
            <Array as="points">
              <mxPoint x="178" y="400" />
              <mxPoint x="290" y="400" />
              <mxPoint x="290" y="465" />
            </Array>
          </mxGeometry>
        </mxCell>
        <mxCell id="vbgf6LlGahoQNrdfwKG8-131" style="edgeStyle=orthogonalEdgeStyle;rounded=0;orthogonalLoop=1;jettySize=auto;html=1;exitX=0.5;exitY=0;exitDx=0;exitDy=0;entryX=0.75;entryY=0;entryDx=0;entryDy=0;dashed=1;strokeWidth=2;" edge="1" parent="1" source="vbgf6LlGahoQNrdfwKG8-97" target="vbgf6LlGahoQNrdfwKG8-123">
          <mxGeometry relative="1" as="geometry">
            <Array as="points">
              <mxPoint x="155" y="-30" />
              <mxPoint x="873" y="-30" />
              <mxPoint x="873" y="390" />
            </Array>
          </mxGeometry>
        </mxCell>
        <mxCell id="vbgf6LlGahoQNrdfwKG8-97" value="PSA" style="whiteSpace=wrap;align=center;verticalAlign=middle;fontStyle=1;strokeWidth=2;fillColor=#FFFFCC" vertex="1" parent="1">
          <mxGeometry x="110" y="10" width="90" height="60" as="geometry" />
        </mxCell>
        <mxCell id="vbgf6LlGahoQNrdfwKG8-116" style="edgeStyle=orthogonalEdgeStyle;rounded=0;orthogonalLoop=1;jettySize=auto;html=1;exitX=0.25;exitY=1;exitDx=0;exitDy=0;strokeWidth=2;" edge="1" parent="1" source="vbgf6LlGahoQNrdfwKG8-98" target="vbgf6LlGahoQNrdfwKG8-114">
          <mxGeometry relative="1" as="geometry" />
        </mxCell>
        <mxCell id="vbgf6LlGahoQNrdfwKG8-133" style="edgeStyle=orthogonalEdgeStyle;rounded=0;orthogonalLoop=1;jettySize=auto;html=1;exitX=0.5;exitY=1;exitDx=0;exitDy=0;entryX=0.25;entryY=0;entryDx=0;entryDy=0;dashed=1;strokeWidth=2;" edge="1" parent="1" source="vbgf6LlGahoQNrdfwKG8-98" target="vbgf6LlGahoQNrdfwKG8-120">
          <mxGeometry relative="1" as="geometry">
            <Array as="points">
              <mxPoint x="313" y="370" />
              <mxPoint x="338" y="370" />
            </Array>
          </mxGeometry>
        </mxCell>
        <mxCell id="vbgf6LlGahoQNrdfwKG8-134" style="edgeStyle=orthogonalEdgeStyle;rounded=0;orthogonalLoop=1;jettySize=auto;html=1;exitX=0.75;exitY=1;exitDx=0;exitDy=0;entryX=0.25;entryY=0;entryDx=0;entryDy=0;dashed=1;strokeWidth=2;" edge="1" parent="1" source="vbgf6LlGahoQNrdfwKG8-98" target="vbgf6LlGahoQNrdfwKG8-108">
          <mxGeometry relative="1" as="geometry">
            <Array as="points">
              <mxPoint x="341" y="350" />
              <mxPoint x="498" y="350" />
            </Array>
          </mxGeometry>
        </mxCell>
        <mxCell id="vbgf6LlGahoQNrdfwKG8-136" style="edgeStyle=orthogonalEdgeStyle;rounded=0;orthogonalLoop=1;jettySize=auto;html=1;exitX=0;exitY=0.5;exitDx=0;exitDy=0;entryX=0.5;entryY=0;entryDx=0;entryDy=0;strokeWidth=2;" edge="1" parent="1" source="vbgf6LlGahoQNrdfwKG8-98" target="vbgf6LlGahoQNrdfwKG8-135">
          <mxGeometry relative="1" as="geometry" />
        </mxCell>
        <mxCell id="vbgf6LlGahoQNrdfwKG8-98" value="&lt;p style=&quot;margin: 0px ; margin-top: 4px ; text-align: center ; text-decoration: underline&quot;&gt;&lt;strong&gt;&lt;strong&gt;Process&lt;/strong&gt;&amp;nbsp;#&lt;br&gt;&lt;/strong&gt;&lt;/p&gt;&lt;hr&gt;&lt;p style=&quot;margin: 0px ; margin-left: 8px&quot;&gt;Zonal&amp;nbsp;&lt;/p&gt;&lt;p style=&quot;margin: 0px ; margin-left: 8px&quot;&gt;segmentation&lt;/p&gt;&lt;p style=&quot;margin: 0px ; margin-left: 8px&quot;&gt;&lt;br&gt;&lt;/p&gt;" style="verticalAlign=middle;align=center;overflow=fill;fontSize=12;fontFamily=Helvetica;html=1;rounded=1;fontStyle=1;strokeWidth=2;fillColor=#E6FFCC" vertex="1" parent="1">
          <mxGeometry x="258" y="230" width="110" height="90" as="geometry" />
        </mxCell>
        <mxCell id="vbgf6LlGahoQNrdfwKG8-100" value="Final Report" style="shape=process;whiteSpace=wrap;align=center;verticalAlign=middle;size=0.0475;fontStyle=1;strokeWidth=2;fillColor=#FFCCCC" vertex="1" parent="1">
          <mxGeometry x="324.9999999999999" y="680" width="400" height="50" as="geometry" />
        </mxCell>
        <mxCell id="vbgf6LlGahoQNrdfwKG8-107" style="edgeStyle=orthogonalEdgeStyle;rounded=0;orthogonalLoop=1;jettySize=auto;html=1;exitX=0.5;exitY=1;exitDx=0;exitDy=0;entryX=0.5;entryY=0;entryDx=0;entryDy=0;strokeWidth=2;" edge="1" parent="1" source="vbgf6LlGahoQNrdfwKG8-101" target="vbgf6LlGahoQNrdfwKG8-98">
          <mxGeometry relative="1" as="geometry">
            <Array as="points">
              <mxPoint x="413" y="200" />
              <mxPoint x="313" y="200" />
            </Array>
          </mxGeometry>
        </mxCell>
        <mxCell id="vbgf6LlGahoQNrdfwKG8-110" style="edgeStyle=orthogonalEdgeStyle;rounded=0;orthogonalLoop=1;jettySize=auto;html=1;exitX=0.5;exitY=1;exitDx=0;exitDy=0;entryX=0.25;entryY=0;entryDx=0;entryDy=0;strokeWidth=2;" edge="1" parent="1" source="vbgf6LlGahoQNrdfwKG8-101" target="vbgf6LlGahoQNrdfwKG8-117">
          <mxGeometry relative="1" as="geometry">
            <mxPoint x="710" y="230" as="targetPoint" />
            <Array as="points">
              <mxPoint x="413" y="200" />
              <mxPoint x="498" y="200" />
            </Array>
          </mxGeometry>
        </mxCell>
        <mxCell id="vbgf6LlGahoQNrdfwKG8-101" value="T2W" style="whiteSpace=wrap;align=center;verticalAlign=middle;fontStyle=1;strokeWidth=2;fillColor=#FFFFCC" vertex="1" parent="1">
          <mxGeometry x="368" y="100" width="90" height="60" as="geometry" />
        </mxCell>
        <mxCell id="vbgf6LlGahoQNrdfwKG8-109" style="edgeStyle=orthogonalEdgeStyle;rounded=0;orthogonalLoop=1;jettySize=auto;html=1;exitX=0.5;exitY=1;exitDx=0;exitDy=0;entryX=0.5;entryY=0;entryDx=0;entryDy=0;strokeWidth=2;" edge="1" parent="1" source="vbgf6LlGahoQNrdfwKG8-102" target="vbgf6LlGahoQNrdfwKG8-117">
          <mxGeometry relative="1" as="geometry">
            <mxPoint x="620" y="240" as="targetPoint" />
          </mxGeometry>
        </mxCell>
        <mxCell id="vbgf6LlGahoQNrdfwKG8-102" value="ADC" style="whiteSpace=wrap;align=center;verticalAlign=middle;fontStyle=1;strokeWidth=2;fillColor=#FFFFCC" vertex="1" parent="1">
          <mxGeometry x="480" y="100" width="90" height="60" as="geometry" />
        </mxCell>
        <mxCell id="vbgf6LlGahoQNrdfwKG8-113" style="edgeStyle=orthogonalEdgeStyle;rounded=0;orthogonalLoop=1;jettySize=auto;html=1;exitX=0.5;exitY=1;exitDx=0;exitDy=0;entryX=0.75;entryY=0;entryDx=0;entryDy=0;strokeWidth=2;" edge="1" parent="1" source="vbgf6LlGahoQNrdfwKG8-103" target="vbgf6LlGahoQNrdfwKG8-117">
          <mxGeometry relative="1" as="geometry">
            <Array as="points">
              <mxPoint x="635" y="200" />
              <mxPoint x="553" y="200" />
            </Array>
          </mxGeometry>
        </mxCell>
        <mxCell id="vbgf6LlGahoQNrdfwKG8-103" value="DWI" style="whiteSpace=wrap;align=center;verticalAlign=middle;fontStyle=1;strokeWidth=2;fillColor=#FFFFCC" vertex="1" parent="1">
          <mxGeometry x="590" y="100" width="90" height="50" as="geometry" />
        </mxCell>
        <mxCell id="vbgf6LlGahoQNrdfwKG8-119" style="edgeStyle=orthogonalEdgeStyle;rounded=0;orthogonalLoop=1;jettySize=auto;html=1;exitX=1;exitY=0.5;exitDx=0;exitDy=0;entryX=0;entryY=0.5;entryDx=0;entryDy=0;strokeWidth=2;" edge="1" parent="1" source="vbgf6LlGahoQNrdfwKG8-108" target="vbgf6LlGahoQNrdfwKG8-111">
          <mxGeometry relative="1" as="geometry" />
        </mxCell>
        <mxCell id="vbgf6LlGahoQNrdfwKG8-127" style="edgeStyle=orthogonalEdgeStyle;rounded=0;orthogonalLoop=1;jettySize=auto;html=1;exitX=0.5;exitY=1;exitDx=0;exitDy=0;strokeWidth=2;" edge="1" parent="1" source="vbgf6LlGahoQNrdfwKG8-108" target="vbgf6LlGahoQNrdfwKG8-100">
          <mxGeometry relative="1" as="geometry">
            <Array as="points">
              <mxPoint x="525" y="630" />
              <mxPoint x="525" y="630" />
            </Array>
          </mxGeometry>
        </mxCell>
        <mxCell id="vbgf6LlGahoQNrdfwKG8-108" value="&lt;p style=&quot;margin: 0px ; margin-top: 4px ; text-align: center ; text-decoration: underline&quot;&gt;&lt;strong&gt;&lt;strong&gt;Process&lt;/strong&gt;&amp;nbsp;#&lt;br&gt;&lt;/strong&gt;&lt;/p&gt;&lt;hr&gt;&lt;p style=&quot;margin: 0px ; margin-left: 8px&quot;&gt;Lesion&lt;/p&gt;&lt;p style=&quot;margin: 0px ; margin-left: 8px&quot;&gt;segmentation&lt;/p&gt;&lt;p style=&quot;margin: 0px ; margin-left: 8px&quot;&gt;&lt;br&gt;&lt;/p&gt;" style="verticalAlign=middle;align=center;overflow=fill;fontSize=12;fontFamily=Helvetica;html=1;rounded=1;fontStyle=1;strokeWidth=2;fillColor=#E6FFCC" vertex="1" parent="1">
          <mxGeometry x="470" y="420" width="110" height="90" as="geometry" />
        </mxCell>
        <mxCell id="vbgf6LlGahoQNrdfwKG8-126" style="edgeStyle=orthogonalEdgeStyle;rounded=0;orthogonalLoop=1;jettySize=auto;html=1;exitX=0.5;exitY=1;exitDx=0;exitDy=0;entryX=0.75;entryY=0;entryDx=0;entryDy=0;strokeWidth=2;" edge="1" parent="1" source="vbgf6LlGahoQNrdfwKG8-111" target="vbgf6LlGahoQNrdfwKG8-100">
          <mxGeometry relative="1" as="geometry" />
        </mxCell>
        <mxCell id="vbgf6LlGahoQNrdfwKG8-111" value="&lt;p style=&quot;margin: 0px ; margin-top: 4px ; text-align: center ; text-decoration: underline&quot;&gt;&lt;strong&gt;&lt;strong&gt;Process&lt;/strong&gt;&amp;nbsp;#&lt;br&gt;&lt;/strong&gt;&lt;/p&gt;&lt;hr&gt;&lt;p style=&quot;margin: 0px ; margin-left: 8px&quot;&gt;Lesion&lt;/p&gt;&lt;p style=&quot;margin: 0px ; margin-left: 8px&quot;&gt;Classification&lt;/p&gt;&lt;p style=&quot;margin: 0px ; margin-left: 8px&quot;&gt;&lt;br&gt;&lt;/p&gt;" style="verticalAlign=middle;align=center;overflow=fill;fontSize=12;fontFamily=Helvetica;html=1;rounded=1;fontStyle=1;strokeWidth=2;fillColor=#E6FFCC" vertex="1" parent="1">
          <mxGeometry x="630" y="420" width="110" height="90" as="geometry" />
        </mxCell>
        <mxCell id="vbgf6LlGahoQNrdfwKG8-129" style="edgeStyle=orthogonalEdgeStyle;rounded=0;orthogonalLoop=1;jettySize=auto;html=1;exitX=0.5;exitY=1;exitDx=0;exitDy=0;entryX=0;entryY=0.75;entryDx=0;entryDy=0;strokeWidth=2;" edge="1" parent="1" source="vbgf6LlGahoQNrdfwKG8-114" target="vbgf6LlGahoQNrdfwKG8-100">
          <mxGeometry relative="1" as="geometry" />
        </mxCell>
        <mxCell id="vbgf6LlGahoQNrdfwKG8-114" value="&lt;p style=&quot;margin: 0px ; margin-top: 4px ; text-align: center ; text-decoration: underline&quot;&gt;&lt;strong&gt;&lt;strong&gt;Process #&lt;/strong&gt;&lt;br&gt;&lt;/strong&gt;&lt;/p&gt;&lt;hr&gt;&lt;p style=&quot;margin: 0px ; margin-left: 8px&quot;&gt;&amp;nbsp;Assess&amp;nbsp;&lt;/p&gt;&lt;p style=&quot;margin: 0px ; margin-left: 8px&quot;&gt;the prostate&lt;/p&gt;&lt;p style=&quot;margin: 0px ; margin-left: 8px&quot;&gt;cancer&amp;nbsp;&lt;br&gt;&lt;/p&gt;" style="verticalAlign=middle;align=center;overflow=fill;fontSize=12;fontFamily=Helvetica;html=1;rounded=1;fontStyle=1;strokeWidth=2;fillColor=#E6FFCC" vertex="1" parent="1">
          <mxGeometry x="30" y="420" width="110" height="90" as="geometry" />
        </mxCell>
        <mxCell id="vbgf6LlGahoQNrdfwKG8-118" style="edgeStyle=orthogonalEdgeStyle;rounded=0;orthogonalLoop=1;jettySize=auto;html=1;exitX=0.5;exitY=1;exitDx=0;exitDy=0;entryX=0.5;entryY=0;entryDx=0;entryDy=0;strokeWidth=2;" edge="1" parent="1" source="vbgf6LlGahoQNrdfwKG8-117" target="vbgf6LlGahoQNrdfwKG8-108">
          <mxGeometry relative="1" as="geometry" />
        </mxCell>
        <mxCell id="vbgf6LlGahoQNrdfwKG8-121" style="edgeStyle=orthogonalEdgeStyle;rounded=0;orthogonalLoop=1;jettySize=auto;html=1;exitX=0.5;exitY=1;exitDx=0;exitDy=0;strokeWidth=2;" edge="1" parent="1" source="vbgf6LlGahoQNrdfwKG8-117" target="vbgf6LlGahoQNrdfwKG8-120">
          <mxGeometry relative="1" as="geometry" />
        </mxCell>
        <mxCell id="vbgf6LlGahoQNrdfwKG8-117" value="&lt;p style=&quot;margin: 0px ; margin-top: 4px ; text-align: center ; text-decoration: underline&quot;&gt;&lt;strong&gt;&lt;strong&gt;Process&lt;/strong&gt;&amp;nbsp;#&lt;br&gt;&lt;/strong&gt;&lt;/p&gt;&lt;hr&gt;&lt;p style=&quot;margin: 0px ; margin-left: 8px&quot;&gt;Registration&lt;/p&gt;&lt;p style=&quot;margin: 0px ; margin-left: 8px&quot;&gt;&lt;br&gt;&lt;/p&gt;&lt;p style=&quot;margin: 0px ; margin-left: 8px&quot;&gt;&lt;br&gt;&lt;/p&gt;" style="verticalAlign=middle;align=center;overflow=fill;fontSize=12;fontFamily=Helvetica;html=1;rounded=1;fontStyle=1;strokeWidth=2;fillColor=#E6FFCC" vertex="1" parent="1">
          <mxGeometry x="470" y="240" width="110" height="90" as="geometry" />
        </mxCell>
        <mxCell id="vbgf6LlGahoQNrdfwKG8-128" style="edgeStyle=orthogonalEdgeStyle;rounded=0;orthogonalLoop=1;jettySize=auto;html=1;exitX=0.5;exitY=1;exitDx=0;exitDy=0;entryX=0.25;entryY=0;entryDx=0;entryDy=0;strokeWidth=2;" edge="1" parent="1" source="vbgf6LlGahoQNrdfwKG8-120" target="vbgf6LlGahoQNrdfwKG8-100">
          <mxGeometry relative="1" as="geometry" />
        </mxCell>
        <mxCell id="vbgf6LlGahoQNrdfwKG8-120" value="&lt;p style=&quot;margin: 0px ; margin-top: 4px ; text-align: center ; text-decoration: underline&quot;&gt;&lt;strong&gt;&lt;strong&gt;Process&lt;/strong&gt;&amp;nbsp;#&lt;br&gt;&lt;/strong&gt;&lt;/p&gt;&lt;hr&gt;&lt;p style=&quot;margin: 0px ; margin-left: 8px&quot;&gt;Hyperplasia&lt;/p&gt;&lt;p style=&quot;margin: 0px ; margin-left: 8px&quot;&gt;Prostatitis&lt;/p&gt;&lt;p style=&quot;margin: 0px ; margin-left: 8px&quot;&gt;Cancer&lt;/p&gt;&lt;p style=&quot;margin: 0px ; margin-left: 8px&quot;&gt;Classification&lt;/p&gt;" style="verticalAlign=middle;align=center;overflow=fill;fontSize=12;fontFamily=Helvetica;html=1;rounded=1;fontStyle=1;strokeWidth=2;fillColor=#E6FFCC" vertex="1" parent="1">
          <mxGeometry x="310" y="420" width="110" height="90" as="geometry" />
        </mxCell>
        <mxCell id="vbgf6LlGahoQNrdfwKG8-125" style="edgeStyle=orthogonalEdgeStyle;rounded=0;orthogonalLoop=1;jettySize=auto;html=1;exitX=0.5;exitY=1;exitDx=0;exitDy=0;entryX=1;entryY=0.5;entryDx=0;entryDy=0;strokeWidth=2;" edge="1" parent="1" source="vbgf6LlGahoQNrdfwKG8-123" target="vbgf6LlGahoQNrdfwKG8-100">
          <mxGeometry relative="1" as="geometry" />
        </mxCell>
        <mxCell id="vbgf6LlGahoQNrdfwKG8-123" value="&lt;p style=&quot;margin: 0px ; margin-top: 4px ; text-align: center ; text-decoration: underline&quot;&gt;&lt;strong&gt;&lt;strong&gt;Process&lt;/strong&gt;&amp;nbsp;#&lt;br&gt;&lt;/strong&gt;&lt;/p&gt;&lt;hr&gt;&lt;p style=&quot;margin: 0px ; margin-left: 8px&quot;&gt;Search for&amp;nbsp;&lt;/p&gt;&lt;p style=&quot;margin: 0px ; margin-left: 8px&quot;&gt;similar cases&lt;/p&gt;&lt;p style=&quot;margin: 0px ; margin-left: 8px&quot;&gt;and compare&amp;nbsp;&lt;/p&gt;&lt;p style=&quot;margin: 0px ; margin-left: 8px&quot;&gt;symptoms&amp;nbsp;&lt;/p&gt;&lt;p style=&quot;margin: 0px ; margin-left: 8px&quot;&gt;&lt;br&gt;&lt;/p&gt;" style="verticalAlign=middle;align=center;overflow=fill;fontSize=12;fontFamily=Helvetica;html=1;rounded=1;fontStyle=1;strokeWidth=2;fillColor=#E6FFCC" vertex="1" parent="1">
          <mxGeometry x="790" y="420" width="110" height="90" as="geometry" />
        </mxCell>
        <mxCell id="vbgf6LlGahoQNrdfwKG8-137" style="edgeStyle=orthogonalEdgeStyle;rounded=0;orthogonalLoop=1;jettySize=auto;html=1;exitX=0.5;exitY=1;exitDx=0;exitDy=0;entryX=0;entryY=0.25;entryDx=0;entryDy=0;strokeWidth=2;" edge="1" parent="1" source="vbgf6LlGahoQNrdfwKG8-135" target="vbgf6LlGahoQNrdfwKG8-100">
          <mxGeometry relative="1" as="geometry" />
        </mxCell>
        <mxCell id="vbgf6LlGahoQNrdfwKG8-135" value="&lt;p style=&quot;margin: 0px ; margin-top: 4px ; text-align: center ; text-decoration: underline&quot;&gt;&lt;strong&gt;&lt;strong&gt;Process&lt;/strong&gt;&amp;nbsp;#&lt;br&gt;&lt;/strong&gt;&lt;/p&gt;&lt;hr&gt;&lt;p style=&quot;margin: 0px ; margin-left: 8px&quot;&gt;Assess&lt;/p&gt;&lt;p style=&quot;margin: 0px ; margin-left: 8px&quot;&gt;Prostate&amp;nbsp;&lt;/p&gt;&lt;p style=&quot;margin: 0px ; margin-left: 8px&quot;&gt;Volume&lt;/p&gt;&lt;p style=&quot;margin: 0px ; margin-left: 8px&quot;&gt;&lt;br&gt;&lt;/p&gt;" style="verticalAlign=middle;align=center;overflow=fill;fontSize=12;fontFamily=Helvetica;html=1;rounded=1;fontStyle=1;strokeWidth=2;fillColor=#E6FFCC" vertex="1" parent="1">
          <mxGeometry x="160" y="420" width="110" height="90" as="geometry" />
        </mxCell>
      </root>
    </mxGraphModel>
  </diagram>
</mxfile>
